/* XPM */
const char * difinder_xpm[] = {
"48 48 11 1",
" 	c None",
".	c #F5F5EF",
"+	c #EFEFDE",
"@	c #A3A392",
"#	c #D8D8C8",
"$	c #88887D",
"%	c #DA1D1B",
"&	c #26DA1B",
"*	c #F8F8F5",
"=	c #B1B1A3",
"-	c #53534C",
"                                                ",
"           ...........................          ",
"          .+++++++++++++++++++++++++++@         ",
"          .+++++++++++++++++++++++++++@         ",
"          .+++++++++++++++++++++++++++@         ",
"          .+++++++++++++++++++++++++++@         ",
"          .+++++++++++++++++++++++++++@         ",
"          .+++++++++++++++++++++++++++@         ",
"          .+++++++++++++++++++++++++++@         ",
"          .+++++++++++++++++++++++++++@         ",
"          .+++++++++++++++++++++++++++@         ",
"          .+++++++++++++++++++++++++++@         ",
"          .+++++++++++++++++++++++++++@         ",
"          .+++++++++++++++++++++++++++@         ",
"          .+++++++++++++++++++++++++++@         ",
"          .+++++++++++++++++++++++++++@         ",
"          .+++++++++++++++++++++++++++@         ",
"          .###########################@         ",
"          .$$$$$$$$$$$$$$$$$$$$$$$$$$$@         ",
"          .###########################@         ",
"          .$$$$$$$$$$$$$$$$$$$$$$$$$$$@         ",
"          .###########################@         ",
"          .$$$$$$$$$$$$$$$$$$$$$$$$$$$@         ",
"          .###########################@         ",
"          .$$$$$$$$$$$$$$$$$$$$$$$$$$$@         ",
"          .###########################@         ",
"          .$$$$$$$$$$$$$$$$$$$$$$$$$$$@         ",
"          .###########################@         ",
"          .+++++++++++++++++++++++++++@         ",
"          .+++++++++++++++++++++++++++@         ",
"          .+++++++++++++++++++++++++++@         ",
"          .+++++++++++++++++++++++++++@         ",
"          .++++++++++++++++++++%++++++@         ",
"          .++++++++++++++++++++%++++++@         ",
"          .+++++++++++++++++++++++++++@         ",
"          .+++++++++++++++++++++++++++@         ",
"          .++++++++++++++++++++&++++++@         ",
"          .++++++++++++++++++++&++++++@         ",
"          .+++++++++++++++++++++++++++@         ",
"          .+++++++++++++++++++++++++++@         ",
"          .++++++++++++++++++++####+++@         ",
"          .+++++++++++++++++++*++++#++@         ",
"          .+++++++++++++++++++*++++#++@         ",
"          .++++++++++++++++++++****+++@         ",
"          .+++++++++++++++++++++++++++@         ",
"          .+++++++++++++++++++++++++++@         ",
"          .============================         ",
"            --------         --------           "};
