/* XPM */
const char * hd_part_16_xpm[] = {
"16 16 36 1",
" 	c None",
".	c None",
"+	c #7D8880",
"@	c #C4E0E2",
"#	c #C5E1E2",
"$	c #C4E1E2",
"%	c #C0DEE0",
"&	c #C0DDE0",
"*	c #C0DDDF",
"=	c #B9D9DC",
"-	c #B0D3D8",
";	c #B1D4D8",
">	c #A6CCD2",
",	c #A6CCD3",
"'	c #A6CDD3",
")	c #9AC4CC",
"!	c #8CBAC5",
"~	c #8CBBC5",
"{	c #8CBAC4",
"]	c #7FB3BF",
"^	c #7FB2BE",
"/	c #7FB2BF",
"(	c #80B3BF",
"_	c #74ABB9",
":	c #74AAB8",
"<	c #73AAB8",
"[	c #6AA4B3",
"}	c #6BA5B4",
"|	c #6AA4B4",
"1	c #629FAF",
"2	c #639FB0",
"3	c #639FAF",
"4	c #5E9CAD",
"5	c #5D9BAD",
"6	c #5D9CAD",
"7	c #5D9BAC",
"................",
"......++++......",
"....++@#$#++....",
"...+%%%&%&%*+...",
"..+==========+..",
"..+-;-;-;-;-;+..",
".+>>>,>++'>>>,+.",
".+))))+..+))))+.",
".+!~{~+..+!~{~+.",
".+]^/^(++^]^/^+.",
"..+_:_:_:_<_:+..",
"..+[}|}[}|}[}+..",
"...+12321232+...",
"....++4567++....",
"......++++......",
"................"};
