/* XPM */
const char * hd_part_16_export_xpm[] = {
"16 16 69 1",
" 	c None",
".	c #C5C6C6",
"+	c #BEC0C0",
"@	c #BEBFBF",
"#	c #C1C3C3",
"$	c #C2C5C5",
"%	c #FAFCFC",
"&	c #FBFCFC",
"*	c #FCFDFD",
"=	c #E9E9E9",
"-	c #CDCECE",
";	c #DFE4E4",
">	c #BCBEBE",
",	c #BEC3C3",
"'	c #F5F9F9",
")	c #F7FAFA",
"!	c #F0F0F0",
"~	c #C8CBCB",
"{	c #7D8880",
"]	c #B5BFBF",
"^	c #1567E2",
"/	c #F6FAFA",
"(	c #EDEFEF",
"_	c #C3C6C6",
":	c #21EE5B",
"<	c #ECF5F5",
"[	c #EFF7F7",
"}	c #F2F8F8",
"|	c #C0DEE0",
"1	c #DDEEEE",
"2	c #E1F0F0",
"3	c #E5F2F2",
"4	c #B6BFBF",
"5	c #B9D9DC",
"6	c #C6E3E4",
"7	c #CBE6E6",
"8	c #D0E8E8",
"9	c #D5EAEB",
"0	c #AABABA",
"a	c #B0D3D8",
"b	c #B1D4D8",
"c	c #B1D9DA",
"d	c #B3DADB",
"e	c #B5DBDC",
"f	c #B7DCDD",
"g	c #92AEAF",
"h	c #A6CCD2",
"i	c #AFD8D9",
"j	c #AFD9DA",
"k	c #B0D9DA",
"l	c #8CABAC",
"m	c #9AC4CC",
"n	c #8AABAC",
"o	c #89A9AA",
"p	c #89AAAB",
"q	c #7FB3BF",
"r	c #7FB2BE",
"s	c #7FB2BF",
"t	c #74ABB9",
"u	c #73AAB8",
"v	c #74AAB8",
"w	c #6AA4B4",
"x	c #6BA5B4",
"y	c #6AA4B3",
"z	c #639FB0",
"A	c #639FAF",
"B	c #5E9CAD",
"C	c #5D9CAD",
"D	c #5D9BAC",
"        .....+@#",
"        $%&*=-;>",
"        ,')%&!~+",
"     {{{]^^^/)(_",
"   {{^^^^::^<[},",
"  {||^:::::^1234",
" {5555^^::^67890",
" {aba^::^:^cdefg",
"{hhh^:::^:^ijkcl",
"{mm^:::^n^^oooop",
"{qr^::^rqrsr{   ",
" {^:::^tutv{    ",
" {^:::^wxyx{    ",
"  ^^^^^zAz{     ",
"   {{BCD{{      ",
"     {{{        "};
