/* XPM */
const char * hd_part_16_import_xpm[] = {
"16 16 69 1",
" 	c None",
".	c #C5C6C6",
"+	c #BEC0C0",
"@	c #BEBFBF",
"#	c #C1C3C3",
"$	c #C2C5C5",
"%	c #FAFCFC",
"&	c #FBFCFC",
"*	c #FCFDFD",
"=	c #E9E9E9",
"-	c #CDCECE",
";	c #DFE4E4",
">	c #BCBEBE",
",	c #BEC3C3",
"'	c #F5F9F9",
")	c #F7FAFA",
"!	c #F0F0F0",
"~	c #C8CBCB",
"{	c #7D8880",
"]	c #B5BFBF",
"^	c #EBF5F5",
"/	c #EEF6F6",
"(	c #F4F9F9",
"_	c #F6FAFA",
":	c #EDEFEF",
"<	c #C3C6C6",
"[	c #C4E0E2",
"}	c #C4E1E2",
"|	c #C5E1E2",
"1	c #A8B8B9",
"2	c #DCEDEE",
"3	c #1567E2",
"4	c #EFF7F7",
"5	c #F2F8F8",
"6	c #C0DEE0",
"7	c #C0DDE0",
"8	c #21EE5B",
"9	c #E1F0F0",
"0	c #E5F2F2",
"a	c #B6BFBF",
"b	c #B9D9DC",
"c	c #D0E8E8",
"d	c #D5EAEB",
"e	c #AABABA",
"f	c #B0D3D8",
"g	c #B1D4D8",
"h	c #B5DBDC",
"i	c #B7DCDD",
"j	c #92AEAF",
"k	c #A6CCD2",
"l	c #B0D9DA",
"m	c #B1D9DA",
"n	c #8CABAC",
"o	c #9AC4CC",
"p	c #89AAAB",
"q	c #89A9AA",
"r	c #7FB3BF",
"s	c #7FB2BE",
"t	c #7FB2BF",
"u	c #74ABB9",
"v	c #74AAB8",
"w	c #6AA4B3",
"x	c #6BA5B4",
"y	c #639FAF",
"z	c #629FAF",
"A	c #639FB0",
"B	c #5E9CAD",
"C	c #5D9CAD",
"D	c #5D9BAC",
"        .....+@#",
"        $%&*=-;>",
"        ,')%&!~+",
"     {{{]^/(_):<",
"   {{[}|1233345,",
"  {666673388390a",
" {bbbbb388883cde",
" {f33g3888883hij",
"{kk3838883333lmn",
"{oo383883ppqqqqp",
"{rs38833rsts{   ",
" {3888883uv{    ",
" {3883333wx{    ",
"  333yzAyA{     ",
"   {{BCD{{      ",
"     {{{        "};
