/* XPM */
const char * hdd_16_new_xpm[] = {
"16 16 8 1",
" 	c None",
".	c #878787",
"+	c #FFF075",
"@	c #88887D",
"#	c #EFEFDE",
"$	c #D8D8C8",
"%	c #F50000",
"&	c #1ABA00",
"  .+.@@@@@@@@   ",
"...+....####@   ",
"++.+.++.####@   ",
".+++++..####@   ",
" .+++..@@@@@@   ",
".+++++..$$$$@   ",
"++.+.++.@@@@@   ",
"...+....$$$$@   ",
"  .+.#######@   ",
"  ...#######@   ",
"   @######%#@   ",
"   @########@   ",
"   @######&#@   ",
"   @########@   ",
"   @########@   ",
"   @@@@@@@@@@   "};
