/* XPM */
const char * hdd_16_xpm[] = {
"16 16 6 1",
" 	c None",
".	c #88887D",
"+	c #EFEFDE",
"@	c #D8D8C8",
"#	c #F50000",
"$	c #1ABA00",
"   ..........   ",
"   .++++++++.   ",
"   .++++++++.   ",
"   .++++++++.   ",
"   ..........   ",
"   .@@@@@@@@.   ",
"   ..........   ",
"   .@@@@@@@@.   ",
"   .++++++++.   ",
"   .++++++++.   ",
"   .++++++#+.   ",
"   .++++++++.   ",
"   .++++++$+.   ",
"   .++++++++.   ",
"   .++++++++.   ",
"   ..........   "};
