/* XPM */
const char * hdd_16_open_xpm[] = {
"16 16 48 1",
" 	c None",
".	c #88887D",
"+	c #EFEFDE",
"@	c #D8D8C8",
"#	c #9F8539",
"$	c #A2873A",
"%	c #C8A743",
"&	c #C8A643",
"*	c #D8D7C4",
"=	c #D8D7C5",
"-	c #8A897C",
";	c #715E26",
">	c #A58A3B",
",	c #FBDE4A",
"'	c #FCDF4A",
")	c #C9A744",
"!	c #C8A744",
"~	c #C7A643",
"{	c #F8DA4A",
"]	c #F9DB4A",
"^	c #FADC4A",
"/	c #FBDD4A",
"(	c #FDE04A",
"_	c #F3D34B",
":	c #F4D44B",
"<	c #F4D54B",
"[	c #F5D64B",
"}	c #F6D74B",
"|	c #F7D84A",
"1	c #EDCB4B",
"2	c #EDCC4B",
"3	c #EECD4B",
"4	c #EFCE4B",
"5	c #F0CF4B",
"6	c #F1D14B",
"7	c #E6C34B",
"8	c #E7C34B",
"9	c #E7C44B",
"0	c #E8C54B",
"a	c #E9C64B",
"b	c #EAC84B",
"c	c #E1BC4C",
"d	c #E2BD4C",
"e	c #DEBE65",
"f	c #DFBF67",
"g	c #DFC069",
"h	c #DFC06B",
"i	c #C6A958",
"    ........    ",
"    .++++++.    ",
"    .++++++.    ",
"    .++++++.    ",
"    ........    ",
"    .@@@@@@.    ",
" ###........### ",
" $%%%&&**==-;;# ",
" >%,','))!!%%&~%",
" #%{{]]]]^^/,'(%",
" #%_:::<<[}|{]/%",
" %1122233456_[{%",
" %78988890ab15% ",
" %cddccefghi7b% ",
" %%%%%%%%%%%%%% ",
"                "};
